<mxfile host="app.diagrams.net" modified="2024-04-23T16:30:21.144Z" agent="Mozilla/5.0 (Windows NT 10.0; Win64; x64) AppleWebKit/537.36 (KHTML, like Gecko) Chrome/124.0.0.0 Safari/537.36" etag="sihBmaP1o6VZXhBWrNhr" version="24.2.7" type="github">
  <diagram id="C5RBs43oDa-KdzZeNtuy" name="Page-1">
    <mxGraphModel dx="1364" dy="789" grid="1" gridSize="10" guides="1" tooltips="1" connect="1" arrows="1" fold="1" page="1" pageScale="1" pageWidth="827" pageHeight="1169" math="0" shadow="0">
      <root>
        <mxCell id="WIyWlLk6GJQsqaUBKTNV-0" />
        <mxCell id="WIyWlLk6GJQsqaUBKTNV-1" parent="WIyWlLk6GJQsqaUBKTNV-0" />
        <mxCell id="AePX2VyG6WcN8hIceWNY-2" value="" style="edgeStyle=orthogonalEdgeStyle;rounded=0;orthogonalLoop=1;jettySize=auto;html=1;" edge="1" parent="WIyWlLk6GJQsqaUBKTNV-1" source="AePX2VyG6WcN8hIceWNY-30" target="AePX2VyG6WcN8hIceWNY-4">
          <mxGeometry relative="1" as="geometry" />
        </mxCell>
        <mxCell id="AePX2VyG6WcN8hIceWNY-0" value="Start" style="rounded=0;whiteSpace=wrap;html=1;" vertex="1" parent="WIyWlLk6GJQsqaUBKTNV-1">
          <mxGeometry x="354" y="160" width="120" height="60" as="geometry" />
        </mxCell>
        <mxCell id="AePX2VyG6WcN8hIceWNY-3" value="Randomly generate a word" style="rounded=0;whiteSpace=wrap;html=1;" vertex="1" parent="WIyWlLk6GJQsqaUBKTNV-1">
          <mxGeometry x="354" y="240" width="120" height="60" as="geometry" />
        </mxCell>
        <mxCell id="AePX2VyG6WcN8hIceWNY-4" value="Ask the user to guess a letter" style="rounded=1;whiteSpace=wrap;html=1;" vertex="1" parent="WIyWlLk6GJQsqaUBKTNV-1">
          <mxGeometry x="354" y="430" width="120" height="60" as="geometry" />
        </mxCell>
        <mxCell id="AePX2VyG6WcN8hIceWNY-8" value="" style="edgeStyle=orthogonalEdgeStyle;rounded=0;orthogonalLoop=1;jettySize=auto;html=1;" edge="1" parent="WIyWlLk6GJQsqaUBKTNV-1" target="AePX2VyG6WcN8hIceWNY-4">
          <mxGeometry relative="1" as="geometry">
            <mxPoint x="414" y="550" as="sourcePoint" />
          </mxGeometry>
        </mxCell>
        <mxCell id="AePX2VyG6WcN8hIceWNY-31" value="" style="edgeStyle=orthogonalEdgeStyle;rounded=0;orthogonalLoop=1;jettySize=auto;html=1;" edge="1" parent="WIyWlLk6GJQsqaUBKTNV-1" source="AePX2VyG6WcN8hIceWNY-0" target="AePX2VyG6WcN8hIceWNY-30">
          <mxGeometry relative="1" as="geometry">
            <mxPoint x="414" y="220" as="sourcePoint" />
            <mxPoint x="414" y="480" as="targetPoint" />
          </mxGeometry>
        </mxCell>
        <mxCell id="AePX2VyG6WcN8hIceWNY-30" value="Generate as many blanks as letters in word" style="rounded=0;whiteSpace=wrap;html=1;" vertex="1" parent="WIyWlLk6GJQsqaUBKTNV-1">
          <mxGeometry x="354" y="340" width="120" height="60" as="geometry" />
        </mxCell>
        <mxCell id="AePX2VyG6WcN8hIceWNY-33" value="" style="edgeStyle=orthogonalEdgeStyle;rounded=0;orthogonalLoop=1;jettySize=auto;html=1;" edge="1" parent="WIyWlLk6GJQsqaUBKTNV-1" source="AePX2VyG6WcN8hIceWNY-4" target="AePX2VyG6WcN8hIceWNY-32">
          <mxGeometry relative="1" as="geometry">
            <mxPoint x="414" y="490" as="sourcePoint" />
            <mxPoint x="414" y="630" as="targetPoint" />
          </mxGeometry>
        </mxCell>
        <mxCell id="AePX2VyG6WcN8hIceWNY-36" style="edgeStyle=orthogonalEdgeStyle;rounded=0;orthogonalLoop=1;jettySize=auto;html=1;exitX=0;exitY=0.5;exitDx=0;exitDy=0;exitPerimeter=0;entryX=0.5;entryY=0;entryDx=0;entryDy=0;" edge="1" parent="WIyWlLk6GJQsqaUBKTNV-1" source="AePX2VyG6WcN8hIceWNY-32" target="AePX2VyG6WcN8hIceWNY-34">
          <mxGeometry relative="1" as="geometry" />
        </mxCell>
        <mxCell id="AePX2VyG6WcN8hIceWNY-37" style="edgeStyle=orthogonalEdgeStyle;rounded=0;orthogonalLoop=1;jettySize=auto;html=1;exitX=1;exitY=0.5;exitDx=0;exitDy=0;exitPerimeter=0;entryX=0.5;entryY=0;entryDx=0;entryDy=0;" edge="1" parent="WIyWlLk6GJQsqaUBKTNV-1" source="AePX2VyG6WcN8hIceWNY-32" target="AePX2VyG6WcN8hIceWNY-35">
          <mxGeometry relative="1" as="geometry" />
        </mxCell>
        <mxCell id="AePX2VyG6WcN8hIceWNY-32" value="Is the guessed letter in the word" style="strokeWidth=2;html=1;shape=mxgraph.flowchart.decision;whiteSpace=wrap;" vertex="1" parent="WIyWlLk6GJQsqaUBKTNV-1">
          <mxGeometry x="330" y="540" width="168" height="110" as="geometry" />
        </mxCell>
        <mxCell id="AePX2VyG6WcN8hIceWNY-34" value="Replace the blank with the letter" style="rounded=0;whiteSpace=wrap;html=1;" vertex="1" parent="WIyWlLk6GJQsqaUBKTNV-1">
          <mxGeometry x="170" y="660" width="120" height="60" as="geometry" />
        </mxCell>
        <mxCell id="AePX2VyG6WcN8hIceWNY-35" value="Lose a life" style="rounded=0;whiteSpace=wrap;html=1;" vertex="1" parent="WIyWlLk6GJQsqaUBKTNV-1">
          <mxGeometry x="570" y="660" width="120" height="60" as="geometry" />
        </mxCell>
        <mxCell id="AePX2VyG6WcN8hIceWNY-42" style="edgeStyle=orthogonalEdgeStyle;rounded=0;orthogonalLoop=1;jettySize=auto;html=1;exitX=0;exitY=0.5;exitDx=0;exitDy=0;exitPerimeter=0;entryX=0;entryY=0.5;entryDx=0;entryDy=0;" edge="1" parent="WIyWlLk6GJQsqaUBKTNV-1" source="AePX2VyG6WcN8hIceWNY-38" target="AePX2VyG6WcN8hIceWNY-4">
          <mxGeometry relative="1" as="geometry" />
        </mxCell>
        <mxCell id="AePX2VyG6WcN8hIceWNY-45" style="edgeStyle=orthogonalEdgeStyle;rounded=0;orthogonalLoop=1;jettySize=auto;html=1;exitX=0.5;exitY=1;exitDx=0;exitDy=0;exitPerimeter=0;entryX=0;entryY=0.5;entryDx=0;entryDy=0;" edge="1" parent="WIyWlLk6GJQsqaUBKTNV-1" source="AePX2VyG6WcN8hIceWNY-38" target="AePX2VyG6WcN8hIceWNY-44">
          <mxGeometry relative="1" as="geometry" />
        </mxCell>
        <mxCell id="AePX2VyG6WcN8hIceWNY-38" value="Are all of the blanks filled?" style="strokeWidth=2;html=1;shape=mxgraph.flowchart.decision;whiteSpace=wrap;" vertex="1" parent="WIyWlLk6GJQsqaUBKTNV-1">
          <mxGeometry x="180" y="760" width="100" height="100" as="geometry" />
        </mxCell>
        <mxCell id="AePX2VyG6WcN8hIceWNY-43" style="edgeStyle=orthogonalEdgeStyle;rounded=0;orthogonalLoop=1;jettySize=auto;html=1;exitX=1;exitY=0.5;exitDx=0;exitDy=0;exitPerimeter=0;entryX=1;entryY=0.5;entryDx=0;entryDy=0;" edge="1" parent="WIyWlLk6GJQsqaUBKTNV-1" source="AePX2VyG6WcN8hIceWNY-39" target="AePX2VyG6WcN8hIceWNY-4">
          <mxGeometry relative="1" as="geometry" />
        </mxCell>
        <mxCell id="AePX2VyG6WcN8hIceWNY-46" style="edgeStyle=orthogonalEdgeStyle;rounded=0;orthogonalLoop=1;jettySize=auto;html=1;exitX=0.5;exitY=1;exitDx=0;exitDy=0;exitPerimeter=0;entryX=1;entryY=0.5;entryDx=0;entryDy=0;" edge="1" parent="WIyWlLk6GJQsqaUBKTNV-1" source="AePX2VyG6WcN8hIceWNY-39" target="AePX2VyG6WcN8hIceWNY-44">
          <mxGeometry relative="1" as="geometry" />
        </mxCell>
        <mxCell id="AePX2VyG6WcN8hIceWNY-39" value="Have they run out of lives?" style="strokeWidth=2;html=1;shape=mxgraph.flowchart.decision;whiteSpace=wrap;" vertex="1" parent="WIyWlLk6GJQsqaUBKTNV-1">
          <mxGeometry x="580" y="760" width="100" height="100" as="geometry" />
        </mxCell>
        <mxCell id="AePX2VyG6WcN8hIceWNY-40" style="edgeStyle=orthogonalEdgeStyle;rounded=0;orthogonalLoop=1;jettySize=auto;html=1;exitX=0.5;exitY=1;exitDx=0;exitDy=0;entryX=0.5;entryY=0;entryDx=0;entryDy=0;entryPerimeter=0;" edge="1" parent="WIyWlLk6GJQsqaUBKTNV-1" source="AePX2VyG6WcN8hIceWNY-34" target="AePX2VyG6WcN8hIceWNY-38">
          <mxGeometry relative="1" as="geometry" />
        </mxCell>
        <mxCell id="AePX2VyG6WcN8hIceWNY-41" style="edgeStyle=orthogonalEdgeStyle;rounded=0;orthogonalLoop=1;jettySize=auto;html=1;exitX=0.5;exitY=1;exitDx=0;exitDy=0;entryX=0.5;entryY=0;entryDx=0;entryDy=0;entryPerimeter=0;" edge="1" parent="WIyWlLk6GJQsqaUBKTNV-1" source="AePX2VyG6WcN8hIceWNY-35" target="AePX2VyG6WcN8hIceWNY-39">
          <mxGeometry relative="1" as="geometry" />
        </mxCell>
        <mxCell id="AePX2VyG6WcN8hIceWNY-44" value="GAME OVER" style="rounded=1;whiteSpace=wrap;html=1;" vertex="1" parent="WIyWlLk6GJQsqaUBKTNV-1">
          <mxGeometry x="370" y="910" width="120" height="60" as="geometry" />
        </mxCell>
      </root>
    </mxGraphModel>
  </diagram>
</mxfile>
